{"glyphs":{":":{"x_min":0,"x_max":212,"ha":212,"o":"m -6 840 l 217 840 l 217 0 l -6 0 z m 172 129 l 172 264 l 38 264 l 38 129 z m 172 397 l 172 532 l 38 532 l 38 397 z"},"$":{"x_min":0,"x_max":394,"ha":394,"o":"m 401 840 l 401 0 l -5 0 l -5 840 z m 192 501 q 183 503 176 510 q 170 518 170 528 q 170 539 178 548 q 186 556 197 556 q 209 556 217 548 q 225 539 225 528 l 359 528 q 359 575 335 613 q 311 651 273 671 l 273 733 l 138 733 l 138 678 q 93 660 64 620 q 36 579 36 528 q 36 495 48 466 q 61 436 83 414 q 105 392 134 380 q 164 367 197 367 l 202 367 q 212 365 218 358 q 225 350 225 340 q 225 329 217 320 q 209 312 197 312 q 186 312 178 320 q 170 329 170 340 l 36 340 q 36 289 64 248 q 93 208 138 190 l 138 129 l 273 129 l 273 197 q 311 217 335 255 q 359 293 359 340 q 359 373 346 402 q 333 432 311 454 q 289 476 260 488 q 230 501 197 501 z"},"?":{"x_min":0,"x_max":462,"ha":462,"o":"m 469 840 l 469 0 l -10 0 l -10 840 z m 257 264 l 123 264 l 123 129 l 257 129 z m 299 369 q 317 380 338 395 q 358 410 376 430 q 394 451 406 478 q 418 506 418 542 q 418 580 404 614 q 389 648 364 673 q 339 698 305 712 q 271 727 233 727 q 193 727 158 712 q 124 698 98 673 q 72 648 57 614 q 42 580 42 542 l 176 542 q 176 563 192 578 q 209 593 233 593 q 254 593 269 578 q 284 563 284 542 q 284 527 272 515 q 260 503 228 483 q 212 473 194 460 q 175 448 160 430 q 144 413 134 390 q 123 368 123 339 l 123 314 l 257 314 l 257 325 q 257 330 258 335 q 259 340 261 344 q 266 352 277 358 q 288 363 299 369 z"},"'":{"x_min":0,"x_max":209,"ha":209,"o":"m -7 840 l 216 840 l 216 0 l -7 0 z m 172 592 l 172 727 l 38 727 l 38 592 l 90 592 l 47 517 l 129 517 z"},"=":{"x_min":0,"x_max":500,"ha":500,"o":"m -10 840 l 513 840 l 513 0 l -10 0 z m 460 229 l 460 364 l 43 364 l 43 229 z m 460 509 l 460 645 l 43 645 l 43 509 z"},"a":{"x_min":0,"x_max":619,"ha":619,"o":"m -8 839 l 626 839 l 626 0 l -8 0 z m 444 114 l 595 114 l 380 734 l 227 734 l 12 114 l 162 114 l 246 354 l 361 354 z"},"L":{"x_min":0,"x_max":408,"ha":408,"o":"m -8 839 l 420 839 l 420 0 l -8 0 z m 380 114 l 380 254 l 182 254 l 182 734 l 42 734 l 42 114 z"},"3":{"x_min":0,"x_max":432,"ha":432,"o":"m 439 840 l 439 0 l -11 0 l -11 840 z m 407 307 q 407 341 396 370 q 385 400 365 424 q 385 448 396 478 q 407 508 407 542 q 407 572 398 599 q 389 629 372 654 q 354 679 330 697 q 306 715 276 725 q 247 735 215 735 q 176 735 141 720 q 106 704 80 678 q 54 652 39 617 q 24 582 24 542 l 164 542 q 164 564 179 579 q 194 594 215 594 q 232 594 246 584 q 260 574 265 558 q 267 548 267 543 q 267 521 252 508 q 237 494 215 494 l 127 494 l 127 354 l 215 354 q 237 354 252 340 q 267 327 267 306 q 267 301 265 291 q 260 275 246 265 q 232 255 215 255 q 194 255 179 270 q 164 285 164 307 l 24 307 q 24 267 39 232 q 54 197 80 170 q 106 144 141 129 q 176 114 215 114 q 247 114 276 124 q 306 134 330 152 q 354 170 372 195 q 389 220 398 250 q 407 277 407 307 z"},";":{"x_min":0,"x_max":213,"ha":213,"o":"m -5 840 l 218 840 l 218 0 l -5 0 z m 175 129 l 175 264 l 41 264 l 41 129 l 93 129 l 50 54 l 132 54 z m 175 397 l 175 532 l 41 532 l 41 397 z"},"J":{"x_min":0,"x_max":429,"ha":429,"o":"m 437 839 l 437 0 l -8 0 l -8 839 z m 400 734 l 260 734 l 260 306 q 260 284 244 269 q 229 254 208 254 q 186 254 171 269 q 156 284 156 306 l 16 306 q 16 266 31 231 q 46 196 72 170 q 98 144 133 129 q 168 114 208 114 q 247 114 282 129 q 316 144 342 170 q 368 195 384 230 q 399 264 400 303 z"},"V":{"x_min":0,"x_max":610,"ha":610,"o":"m -8 839 l 621 839 l 621 0 l -8 0 z m 375 114 l 590 734 l 450 734 l 304 312 l 158 734 l 18 734 l 233 114 z"},"7":{"x_min":0,"x_max":450,"ha":450,"o":"m -8 840 l 455 840 l 455 0 l -8 0 z m 424 595 l 424 734 l 367 734 l 367 735 l 358 735 l 358 734 l 30 734 l 30 595 l 283 595 l 25 114 l 165 114 z"},"S":{"x_min":0,"x_max":436,"ha":436,"o":"m 451 838 l 451 -1 l -13 -1 l -13 838 z m 398 305 q 398 344 383 378 q 368 413 342 438 q 316 464 281 478 q 246 493 207 493 q 185 493 170 506 q 155 520 155 541 q 155 546 157 556 q 162 572 176 582 q 190 592 207 592 q 228 592 243 577 q 258 562 258 541 l 398 541 q 398 580 383 615 q 368 650 342 676 q 316 703 281 718 q 246 733 207 733 q 175 733 146 723 q 116 713 92 695 q 68 677 50 652 q 33 627 24 598 q 15 571 15 541 q 15 501 30 467 q 46 433 72 408 q 98 382 132 368 q 167 353 207 353 q 228 353 243 340 q 258 326 258 304 q 258 299 256 289 q 251 273 238 263 q 224 253 207 253 q 185 253 170 268 q 155 283 155 305 l 15 305 q 15 265 30 230 q 45 195 71 169 q 97 143 132 128 q 167 113 207 113 q 239 113 268 123 q 298 133 322 151 q 346 169 364 194 q 381 219 390 248 q 398 277 398 305 z"},"Z":{"x_min":0,"x_max":464,"ha":464,"o":"m -9 839 l 471 839 l 471 0 l -9 0 z m 430 594 l 430 734 l 27 734 l 27 594 l 267 594 l 27 254 l 27 114 l 430 114 l 430 254 l 188 254 z"},"x":{"x_min":0,"x_max":537,"ha":537,"o":"m -9 839 l 543 839 l 543 0 l -9 0 z m 504 114 l 338 424 l 504 734 l 364 734 l 268 554 l 171 734 l 31 734 l 198 424 l 31 114 l 171 114 l 268 294 l 364 114 z"},"&":{"x_min":0,"x_max":580,"ha":580,"o":"m 590 840 l 590 0 l -9 0 l -9 840 z m 476 288 l 555 366 l 474 447 l 396 368 l 305 460 q 340 477 361 510 q 382 543 382 585 q 382 614 371 640 q 360 665 341 684 q 322 703 296 714 q 271 725 242 725 q 213 725 188 714 q 162 703 143 684 q 124 665 113 640 q 102 614 102 585 q 102 561 110 539 q 117 517 131 500 q 91 473 66 430 q 42 386 42 334 q 42 292 58 256 q 74 219 101 192 q 128 165 164 150 q 201 134 242 134 q 288 134 327 153 q 366 172 394 204 l 467 130 l 551 214 z"},"_":{"x_min":0,"x_max":503,"ha":503,"o":"m 513 840 l 513 0 l -10 0 l -10 840 z"},"v":{"x_min":0,"x_max":610,"ha":610,"o":"m -8 839 l 621 839 l 621 0 l -8 0 z m 375 114 l 590 734 l 450 734 l 304 312 l 158 734 l 18 734 l 233 114 z"},"O":{"x_min":0,"x_max":542,"ha":542,"o":"m 550 839 l 550 0 l -7 0 l -7 839 z m 514 360 l 514 410 l 514 487 l 514 506 q 510 550 492 589 q 474 628 444 659 q 410 695 366 714 q 322 734 274 734 l 273 734 q 224 734 180 714 q 136 695 102 659 q 72 627 54 588 q 37 549 33 505 l 33 360 q 34 311 52 266 q 69 222 102 187 q 137 152 180 132 q 224 113 273 113 l 274 113 q 322 113 366 132 q 410 152 444 187 q 477 222 495 266 q 513 311 513 360 z"},"C":{"x_min":0,"x_max":529,"ha":529,"o":"m 537 839 l 537 0 l -9 0 l -9 839 z m 267 254 q 246 254 228 262 q 210 271 196 286 q 183 301 175 320 q 167 340 167 363 l 167 485 q 167 507 175 527 q 183 547 196 562 q 210 577 228 586 q 246 594 267 594 q 288 594 306 586 q 325 577 338 562 q 352 547 360 527 q 368 507 368 485 l 508 485 q 508 535 490 580 q 472 625 439 660 q 368 734 268 734 l 267 734 q 167 734 96 660 q 63 625 46 580 q 28 536 27 487 l 27 359 q 28 310 46 266 q 64 223 96 188 q 167 114 267 114 l 268 114 q 317 114 360 133 q 404 152 439 188 q 472 223 490 268 q 508 313 508 363 l 368 363 q 368 340 360 320 q 352 301 338 286 q 325 271 306 262 q 288 254 267 254 z"},"W":{"x_min":0,"x_max":788,"ha":788,"o":"m -4 839 l 793 839 l 793 0 l -4 0 z m 617 114 l 768 734 l 628 734 l 546 397 l 464 734 l 322 734 l 240 397 l 158 734 l 18 734 l 169 114 l 311 114 l 393 450 l 475 114 z"},"A":{"x_min":0,"x_max":619,"ha":619,"o":"m -8 839 l 626 839 l 626 0 l -8 0 z m 444 114 l 595 114 l 380 734 l 227 734 l 12 114 l 162 114 l 246 354 l 361 354 z"},"f":{"x_min":0,"x_max":458,"ha":458,"o":"m -3 839 l 467 839 l 467 0 l -3 0 z m 429 594 l 429 734 l 49 734 l 49 114 l 189 114 l 189 354 l 366 354 l 366 494 l 189 494 l 189 594 z"},"Q":{"x_min":0,"x_max":577,"ha":577,"o":"m 580 839 l 580 0 l -7 0 l -7 839 z m 558 114 l 481 256 q 504 305 504 360 l 504 410 l 504 487 l 504 506 q 501 550 483 589 q 465 628 435 659 q 401 695 357 714 q 313 734 264 734 q 215 734 171 714 q 127 695 93 659 q 63 627 45 588 q 27 549 24 505 l 24 360 q 24 311 42 266 q 60 222 93 187 q 127 152 171 132 q 215 113 264 113 q 298 113 329 122 q 360 132 388 149 l 408 114 z"},"w":{"x_min":0,"x_max":788,"ha":788,"o":"m -4 839 l 793 839 l 793 0 l -4 0 z m 617 114 l 768 734 l 628 734 l 546 397 l 464 734 l 322 734 l 240 397 l 158 734 l 18 734 l 169 114 l 311 114 l 393 450 l 475 114 z"},"-":{"x_min":0,"x_max":491,"ha":491,"o":"m -19 840 l 504 840 l 504 0 l -19 0 z m 449 367 l 449 502 l 33 502 l 33 367 z"},"E":{"x_min":0,"x_max":441,"ha":441,"o":"m -8 839 l 450 839 l 450 0 l -8 0 z m 409 594 l 409 734 l 29 734 l 29 114 l 409 114 l 409 254 l 169 254 l 169 354 l 346 354 l 346 494 l 169 494 l 169 594 z"},"s":{"x_min":0,"x_max":436,"ha":436,"o":"m 451 838 l 451 -1 l -13 -1 l -13 838 z m 398 305 q 398 344 383 378 q 368 413 342 438 q 316 464 281 478 q 246 493 207 493 q 185 493 170 506 q 155 520 155 541 q 155 546 157 556 q 162 572 176 582 q 190 592 207 592 q 228 592 243 577 q 258 562 258 541 l 398 541 q 398 580 383 615 q 368 650 342 676 q 316 703 281 718 q 246 733 207 733 q 175 733 146 723 q 116 713 92 695 q 68 677 50 652 q 33 627 24 598 q 15 571 15 541 q 15 501 30 467 q 46 433 72 408 q 98 382 132 368 q 167 353 207 353 q 228 353 243 340 q 258 326 258 304 q 258 299 256 289 q 251 273 238 263 q 224 253 207 253 q 185 253 170 268 q 155 283 155 305 l 15 305 q 15 265 30 230 q 45 195 71 169 q 97 143 132 128 q 167 113 207 113 q 239 113 268 123 q 298 133 322 151 q 346 169 364 194 q 381 219 390 248 q 398 277 398 305 z"},"l":{"x_min":0,"x_max":408,"ha":408,"o":"m -8 839 l 420 839 l 420 0 l -8 0 z m 380 114 l 380 254 l 182 254 l 182 734 l 42 734 l 42 114 z"},"8":{"x_min":0,"x_max":441,"ha":441,"o":"m 449 840 l 449 0 l -13 0 l -13 840 z m 409 306 q 409 341 398 371 q 386 401 366 424 q 386 448 398 478 q 409 508 409 542 l 409 543 q 409 583 394 618 q 379 652 353 678 q 327 704 292 719 q 257 734 218 734 q 178 734 144 719 q 109 704 83 678 q 57 652 42 618 q 26 583 26 543 l 26 542 q 26 508 38 478 q 50 448 70 424 q 50 401 38 371 q 26 341 26 306 l 26 305 q 26 266 42 231 q 57 196 83 170 q 109 144 144 129 q 178 114 218 114 q 257 114 292 129 q 327 144 353 170 q 379 196 394 231 q 409 266 409 305 z"},"e":{"x_min":0,"x_max":441,"ha":441,"o":"m -8 839 l 450 839 l 450 0 l -8 0 z m 409 594 l 409 734 l 29 734 l 29 114 l 409 114 l 409 254 l 169 254 l 169 354 l 346 354 l 346 494 l 169 494 l 169 594 z"},"b":{"x_min":0,"x_max":415,"ha":415,"o":"m 426 839 l 426 0 l -6 0 l -6 839 z m 389 278 q 389 326 364 364 q 340 403 301 424 q 340 444 364 483 q 389 522 389 570 q 389 604 376 634 q 363 663 341 686 q 319 708 289 721 q 259 734 225 734 l 221 734 l 31 734 l 31 114 l 221 114 l 225 114 q 259 114 289 127 q 319 140 341 162 q 363 184 376 214 q 389 244 389 278 z"},"%":{"x_min":0,"x_max":631,"ha":631,"o":"m 634 840 l 634 0 l -9 0 l -9 840 z m 29 533 q 29 513 36 495 q 44 477 58 464 q 71 450 88 442 q 106 435 126 435 q 167 435 196 464 q 224 492 224 533 q 224 553 216 570 q 209 588 196 602 q 182 615 164 622 q 146 630 126 630 q 106 630 88 622 q 71 615 58 602 q 44 588 36 570 q 29 553 29 533 z m 199 129 l 551 728 l 416 728 l 64 129 z m 493 238 q 513 238 530 246 q 548 253 562 266 q 575 280 582 298 q 590 316 590 336 q 590 356 582 374 q 575 391 562 404 q 548 418 530 426 q 513 433 493 433 q 473 433 455 426 q 437 418 424 404 q 410 391 402 374 q 395 356 395 336 q 395 295 424 266 q 452 238 493 238 z"},"m":{"x_min":0,"x_max":654,"ha":654,"o":"m -8 839 l 660 839 l 660 0 l -8 0 z m 610 733 l 611 734 l 470 734 l 470 733 l 325 315 l 180 734 l 38 734 l 38 114 l 178 114 l 178 337 l 255 114 l 395 114 l 470 330 l 470 114 l 610 114 z"},",":{"x_min":0,"x_max":211,"ha":211,"o":"m -7 840 l 216 840 l 216 0 l -7 0 z m 173 129 l 173 264 l 38 264 l 38 129 l 90 129 l 48 54 l 130 54 z"},"n":{"x_min":0,"x_max":519,"ha":519,"o":"m -9 839 l 530 839 l 530 0 l -9 0 z m 489 114 l 489 734 l 349 734 l 349 388 l 175 734 l 32 734 l 32 114 l 172 114 l 172 460 l 347 114 z"},"h":{"x_min":0,"x_max":516,"ha":516,"o":"m -6 839 l 522 839 l 522 0 l -6 0 z m 474 114 l 474 734 l 334 734 l 334 494 l 168 494 l 168 734 l 28 734 l 28 114 l 168 114 l 168 354 l 334 354 l 334 114 z"},"z":{"x_min":0,"x_max":464,"ha":464,"o":"m -9 839 l 471 839 l 471 0 l -9 0 z m 430 594 l 430 734 l 27 734 l 27 594 l 267 594 l 27 254 l 27 114 l 430 114 l 430 254 l 188 254 z"},"B":{"x_min":0,"x_max":415,"ha":415,"o":"m 426 839 l 426 0 l -6 0 l -6 839 z m 389 278 q 389 326 364 364 q 340 403 301 424 q 340 444 364 483 q 389 522 389 570 q 389 604 376 634 q 363 663 341 686 q 319 708 289 721 q 259 734 225 734 l 221 734 l 31 734 l 31 114 l 221 114 l 225 114 q 259 114 289 127 q 319 140 341 162 q 363 184 376 214 q 389 244 389 278 z"},"K":{"x_min":0,"x_max":478,"ha":478,"o":"m -6 839 l 489 839 l 489 0 l -6 0 z m 467 114 l 203 423 l 468 734 l 328 734 l 169 556 l 169 734 l 29 734 l 29 114 l 169 114 l 169 289 l 327 114 z"},"R":{"x_min":0,"x_max":452,"ha":452,"o":"m 456 839 l 456 0 l -13 0 l -13 839 z m 424 114 l 306 370 q 354 393 383 438 q 412 484 412 541 q 412 581 396 616 q 381 651 355 678 q 329 704 294 719 q 259 734 219 734 l 218 734 l 30 734 l 30 114 l 170 114 l 170 349 l 171 349 l 279 114 z"},"T":{"x_min":0,"x_max":475,"ha":475,"o":"m -13 838 l 480 838 l 480 -1 l -13 -1 z m 443 593 l 443 733 l 21 733 l 21 593 l 162 593 l 162 113 l 302 113 l 302 593 z"},"P":{"x_min":0,"x_max":443,"ha":443,"o":"m 450 839 l 450 0 l -4 0 l -4 839 z m 224 349 q 264 349 299 364 q 334 379 360 405 q 387 431 402 466 q 417 501 417 541 q 417 581 402 616 q 387 651 360 678 q 334 704 299 719 q 264 734 224 734 l 223 734 l 35 734 l 35 114 l 175 114 l 175 349 l 223 349 z"},"t":{"x_min":0,"x_max":475,"ha":475,"o":"m -13 838 l 480 838 l 480 -1 l -13 -1 z m 443 593 l 443 733 l 21 733 l 21 593 l 162 593 l 162 113 l 302 113 l 302 593 z"},"M":{"x_min":0,"x_max":654,"ha":654,"o":"m -8 839 l 660 839 l 660 0 l -8 0 z m 610 733 l 611 734 l 470 734 l 470 733 l 325 315 l 180 734 l 38 734 l 38 114 l 178 114 l 178 337 l 255 114 l 395 114 l 470 330 l 470 114 l 610 114 z"},"g":{"x_min":0,"x_max":522,"ha":522,"o":"m 525 839 l 525 0 l -5 0 l -5 839 z m 494 423 l 253 423 l 253 294 l 331 294 q 317 275 297 264 q 277 254 253 254 q 232 254 214 262 q 196 271 182 286 q 169 301 161 320 q 153 340 153 363 l 153 485 q 153 507 161 527 q 169 547 182 562 q 196 577 214 586 q 232 594 253 594 q 274 594 292 586 q 311 577 324 562 q 338 547 346 527 q 354 507 354 485 l 494 485 q 494 535 476 580 q 458 625 425 660 q 390 696 346 715 q 302 734 254 734 l 253 734 q 153 734 82 660 q 49 625 32 580 q 14 536 13 487 l 13 359 q 14 310 32 266 q 50 223 82 188 q 153 114 253 114 l 254 114 q 283 114 310 122 q 338 131 364 146 l 364 114 l 493 114 l 493 347 q 493 352 494 356 q 494 359 494 363 z"},"j":{"x_min":0,"x_max":429,"ha":429,"o":"m 437 839 l 437 0 l -8 0 l -8 839 z m 400 734 l 260 734 l 260 306 q 260 284 244 269 q 229 254 208 254 q 186 254 171 269 q 156 284 156 306 l 16 306 q 16 266 31 231 q 46 196 72 170 q 98 144 133 129 q 168 114 208 114 q 247 114 282 129 q 316 144 342 170 q 368 195 384 230 q 399 264 400 303 z"},"i":{"x_min":0,"x_max":220,"ha":220,"o":"m -13 839 l 226 839 l 226 0 l -13 0 z m 175 114 l 175 734 l 35 734 l 35 114 z"},"y":{"x_min":0,"x_max":528,"ha":528,"o":"m -11 839 l 537 839 l 537 0 l -11 0 z m 332 423 l 499 734 l 359 734 l 262 554 l 165 734 l 25 734 l 192 424 l 192 114 l 332 114 z"},"@":{"x_min":0,"x_max":669,"ha":669,"o":"m 675 840 l 675 0 l -9 0 l -9 840 z m 586 314 q 609 337 622 366 q 634 396 634 430 q 634 492 611 546 q 588 600 546 641 q 505 682 452 706 q 398 729 335 729 q 273 729 219 706 q 165 682 124 641 q 83 600 60 546 q 36 492 36 430 q 36 374 56 325 q 74 277 108 236 q 110 234 112 232 q 114 229 116 227 l 124 219 q 135 208 146 199 q 157 190 169 182 q 194 165 219 155 l 220 155 l 220 154 q 222 154 222 153 l 224 153 q 237 148 250 144 q 264 139 278 137 q 305 131 335 131 q 374 131 413 142 q 454 153 487 173 l 434 226 l 381 279 q 367 275 354 273 q 341 271 327 272 q 313 273 300 276 q 286 280 273 285 l 272 285 q 272 285 271 286 l 270 286 q 250 296 232 310 q 215 325 203 344 q 191 362 184 384 q 177 406 177 430 q 177 463 190 492 q 202 520 224 542 q 245 563 274 576 q 303 588 335 588 q 368 588 396 576 q 425 563 447 542 q 468 520 480 492 q 493 463 493 430 q 493 420 487 413 q 480 406 470 406 q 466 406 462 410 q 459 415 459 423 q 459 425 460 426 q 460 428 460 430 q 460 456 450 478 q 440 501 423 518 q 406 535 384 544 q 361 554 335 554 q 309 554 286 544 q 264 535 248 518 q 231 501 221 478 q 211 456 211 430 q 211 404 221 382 q 231 359 248 342 q 264 325 286 316 q 309 306 335 306 q 343 306 354 308 q 364 309 372 311 q 393 290 417 278 q 441 266 470 266 q 504 266 534 279 q 563 292 586 314 z"},".":{"x_min":0,"x_max":209,"ha":209,"o":"m -7 840 l 216 840 l 216 0 l -7 0 z m 172 129 l 172 264 l 38 264 l 38 129 z"},"p":{"x_min":0,"x_max":443,"ha":443,"o":"m 450 839 l 450 0 l -4 0 l -4 839 z m 224 349 q 264 349 299 364 q 334 379 360 405 q 387 431 402 466 q 417 501 417 541 q 417 581 402 616 q 387 651 360 678 q 334 704 299 719 q 264 734 224 734 l 223 734 l 35 734 l 35 114 l 175 114 l 175 349 l 223 349 z"},"X":{"x_min":0,"x_max":537,"ha":537,"o":"m -9 839 l 543 839 l 543 0 l -9 0 z m 504 114 l 338 424 l 504 734 l 364 734 l 268 554 l 171 734 l 31 734 l 198 424 l 31 114 l 171 114 l 268 294 l 364 114 z"},"*":{"x_min":0,"x_max":380,"ha":380,"o":"m -9 840 l 386 840 l 386 0 l -9 0 z m 330 587 l 273 644 l 353 665 l 330 751 l 237 726 l 237 811 l 148 811 l 148 726 l 56 751 l 34 665 l 114 644 l 55 585 l 118 523 l 194 598 l 267 525 z"},"Y":{"x_min":0,"x_max":528,"ha":528,"o":"m -11 839 l 537 839 l 537 0 l -11 0 z m 332 423 l 499 734 l 359 734 l 262 554 l 165 734 l 25 734 l 192 424 l 192 114 l 332 114 z"},"c":{"x_min":0,"x_max":529,"ha":529,"o":"m 537 839 l 537 0 l -9 0 l -9 839 z m 267 254 q 246 254 228 262 q 210 271 196 286 q 183 301 175 320 q 167 340 167 363 l 167 485 q 167 507 175 527 q 183 547 196 562 q 210 577 228 586 q 246 594 267 594 q 288 594 306 586 q 325 577 338 562 q 352 547 360 527 q 368 507 368 485 l 508 485 q 508 535 490 580 q 472 625 439 660 q 368 734 268 734 l 267 734 q 167 734 96 660 q 63 625 46 580 q 28 536 27 487 l 27 359 q 28 310 46 266 q 64 223 96 188 q 167 114 267 114 l 268 114 q 317 114 360 133 q 404 152 439 188 q 472 223 490 268 q 508 313 508 363 l 368 363 q 368 340 360 320 q 352 301 338 286 q 325 271 306 262 q 288 254 267 254 z"},"!":{"x_min":0,"x_max":207,"ha":207,"o":"m -8 840 l 215 840 l 215 0 l -8 0 z m 35 728 l 35 312 l 170 312 l 170 728 z m 170 129 l 170 264 l 36 264 l 36 129 z"},"6":{"x_min":0,"x_max":448,"ha":448,"o":"m 454 840 l 454 0 l -9 0 l -9 840 z m 176 546 q 176 567 191 582 q 206 597 228 597 q 249 597 264 582 q 280 567 280 546 l 419 546 q 419 585 404 620 q 389 655 363 681 q 337 707 302 722 q 268 737 228 737 q 189 737 154 722 q 120 707 94 682 q 67 657 52 624 q 36 591 36 555 l 36 301 q 36 262 52 228 q 67 195 93 170 q 119 144 154 130 q 189 115 228 115 q 267 115 302 130 q 337 145 363 171 q 389 197 404 232 q 419 267 419 306 l 419 307 q 419 346 404 381 q 389 416 363 442 q 337 468 302 483 q 267 498 228 498 q 214 498 201 496 q 188 494 176 491 z"},"r":{"x_min":0,"x_max":452,"ha":452,"o":"m 456 839 l 456 0 l -13 0 l -13 839 z m 424 114 l 306 370 q 354 393 383 438 q 412 484 412 541 q 412 581 396 616 q 381 651 355 678 q 329 704 294 719 q 259 734 219 734 l 218 734 l 30 734 l 30 114 l 170 114 l 170 349 l 171 349 l 279 114 z"},"2":{"x_min":0,"x_max":444,"ha":444,"o":"m 449 840 l 449 0 l -10 0 l -10 840 z m 218 255 l 357 410 q 383 438 398 470 q 413 503 413 542 q 413 572 404 599 q 395 629 378 654 q 360 679 336 697 q 312 715 282 725 q 253 735 221 735 q 181 735 146 720 q 111 704 85 678 q 59 652 44 617 q 29 582 29 542 l 169 542 q 169 564 184 579 q 200 594 221 594 q 238 594 252 584 q 265 574 270 558 q 273 550 273 543 q 273 529 265 516 l 39 255 l 39 115 l 411 115 l 411 255 z"},"9":{"x_min":0,"x_max":441,"ha":441,"o":"m 451 840 l 451 0 l -12 0 l -12 840 z m 219 115 q 257 115 292 130 q 327 145 354 170 q 380 195 396 228 q 411 261 411 297 l 411 552 q 411 590 396 624 q 380 658 354 683 q 328 708 293 722 q 258 737 219 737 q 179 737 144 722 q 110 707 84 681 q 58 655 42 620 q 27 586 27 546 q 27 506 42 471 q 58 436 84 410 q 110 384 144 369 q 179 354 219 354 q 244 354 271 362 l 271 307 q 271 285 256 270 q 240 255 219 255 q 197 255 182 270 q 167 285 167 307 l 27 307 q 27 267 42 232 q 57 197 83 171 q 109 145 144 130 q 179 115 219 115 z"}," ":{"x_min":0,"x_max":500,"ha":500,"o":""},"I":{"x_min":0,"x_max":220,"ha":220,"o":"m -13 839 l 226 839 l 226 0 l -13 0 z m 175 114 l 175 734 l 35 734 l 35 114 z"},"H":{"x_min":0,"x_max":516,"ha":516,"o":"m -6 839 l 522 839 l 522 0 l -6 0 z m 474 114 l 474 734 l 334 734 l 334 494 l 168 494 l 168 734 l 28 734 l 28 114 l 168 114 l 168 354 l 334 354 l 334 114 z"},"4":{"x_min":0,"x_max":478,"ha":478,"o":"m -10 840 l 487 840 l 487 0 l -10 0 z m 450 354 l 450 494 l 374 494 l 374 735 l 235 735 l 235 733 l 30 494 l 30 494 l 30 354 l 235 354 l 235 114 l 374 114 l 374 354 z"},"D":{"x_min":0,"x_max":531,"ha":531,"o":"m 539 838 l 539 -1 l -2 -1 l -2 838 z m 404 203 q 449 248 472 304 q 495 360 495 423 q 495 486 472 542 q 449 598 404 642 q 359 687 302 710 q 245 733 182 733 l 57 733 l 57 113 l 182 113 l 201 113 q 258 116 310 139 q 362 162 404 203 z"},"0":{"x_min":0,"x_max":437,"ha":437,"o":"m 447 840 l 447 0 l -9 0 l -9 840 z m 408 523 l 408 542 l 408 543 q 408 583 393 618 q 378 652 352 678 q 327 704 292 719 q 257 734 218 734 q 178 734 144 719 q 109 704 83 678 q 57 652 42 618 q 26 583 26 543 l 26 296 q 26 261 42 228 q 57 195 84 170 q 110 144 144 129 q 179 114 218 114 q 257 114 292 129 q 327 144 352 170 q 378 196 393 231 q 408 266 408 305 l 408 306 l 408 326 z"},"F":{"x_min":0,"x_max":458,"ha":458,"o":"m -3 839 l 467 839 l 467 0 l -3 0 z m 429 594 l 429 734 l 49 734 l 49 114 l 189 114 l 189 354 l 366 354 l 366 494 l 189 494 l 189 594 z"},"`":{"x_min":0,"x_max":209,"ha":209,"o":"m -7 840 l 216 840 l 216 0 l -7 0 z m 172 592 l 172 727 l 38 727 l 38 592 l 90 592 l 47 517 l 129 517 z"},"k":{"x_min":0,"x_max":478,"ha":478,"o":"m -6 839 l 489 839 l 489 0 l -6 0 z m 467 114 l 203 423 l 468 734 l 328 734 l 169 556 l 169 734 l 29 734 l 29 114 l 169 114 l 169 289 l 327 114 z"},"u":{"x_min":0,"x_max":531,"ha":531,"o":"m 547 838 l 547 -1 l -12 -1 l -12 838 z m 507 733 l 367 733 l 367 362 q 367 339 359 319 q 351 299 338 284 q 324 269 306 260 q 288 252 267 252 q 246 252 228 260 q 209 269 196 284 q 182 299 174 319 q 166 339 166 362 l 166 733 l 26 733 l 26 359 q 27 310 44 266 q 62 221 95 186 q 130 151 174 132 q 217 112 266 112 l 267 112 q 316 112 360 132 q 403 151 438 186 q 471 221 488 266 q 506 310 507 359 z"},"U":{"x_min":0,"x_max":531,"ha":531,"o":"m 547 838 l 547 -1 l -12 -1 l -12 838 z m 507 733 l 367 733 l 367 362 q 367 339 359 319 q 351 299 338 284 q 324 269 306 260 q 288 252 267 252 q 246 252 228 260 q 209 269 196 284 q 182 299 174 319 q 166 339 166 362 l 166 733 l 26 733 l 26 359 q 27 310 44 266 q 62 221 95 186 q 130 151 174 132 q 217 112 266 112 l 267 112 q 316 112 360 132 q 403 151 438 186 q 471 221 488 266 q 506 310 507 359 z"},"o":{"x_min":0,"x_max":542,"ha":542,"o":"m 550 839 l 550 0 l -7 0 l -7 839 z m 514 360 l 514 410 l 514 487 l 514 506 q 510 550 492 589 q 474 628 444 659 q 410 695 366 714 q 322 734 274 734 l 273 734 q 224 734 180 714 q 136 695 102 659 q 72 627 54 588 q 37 549 33 505 l 33 360 q 34 311 52 266 q 69 222 102 187 q 137 152 180 132 q 224 113 273 113 l 274 113 q 322 113 366 132 q 410 152 444 187 q 477 222 495 266 q 513 311 513 360 z"},"N":{"x_min":0,"x_max":519,"ha":519,"o":"m -9 839 l 530 839 l 530 0 l -9 0 z m 489 114 l 489 734 l 349 734 l 349 388 l 175 734 l 32 734 l 32 114 l 172 114 l 172 460 l 347 114 z"},"+":{"x_min":0,"x_max":504,"ha":504,"o":"m -10 840 l 513 840 l 513 0 l -10 0 z m 460 367 l 460 502 l 319 502 l 319 643 l 184 643 l 184 502 l 43 502 l 43 367 l 184 367 l 184 226 l 319 226 l 319 367 z"},"G":{"x_min":0,"x_max":522,"ha":522,"o":"m 525 839 l 525 0 l -5 0 l -5 839 z m 494 423 l 253 423 l 253 294 l 331 294 q 317 275 297 264 q 277 254 253 254 q 232 254 214 262 q 196 271 182 286 q 169 301 161 320 q 153 340 153 363 l 153 485 q 153 507 161 527 q 169 547 182 562 q 196 577 214 586 q 232 594 253 594 q 274 594 292 586 q 311 577 324 562 q 338 547 346 527 q 354 507 354 485 l 494 485 q 494 535 476 580 q 458 625 425 660 q 390 696 346 715 q 302 734 254 734 l 253 734 q 153 734 82 660 q 49 625 32 580 q 14 536 13 487 l 13 359 q 14 310 32 266 q 50 223 82 188 q 153 114 253 114 l 254 114 q 283 114 310 122 q 338 131 364 146 l 364 114 l 493 114 l 493 347 q 493 352 494 356 q 494 359 494 363 z"},"q":{"x_min":0,"x_max":577,"ha":577,"o":"m 580 839 l 580 0 l -7 0 l -7 839 z m 558 114 l 481 256 q 504 305 504 360 l 504 410 l 504 487 l 504 506 q 501 550 483 589 q 465 628 435 659 q 401 695 357 714 q 313 734 264 734 q 215 734 171 714 q 127 695 93 659 q 63 627 45 588 q 27 549 24 505 l 24 360 q 24 311 42 266 q 60 222 93 187 q 127 152 171 132 q 215 113 264 113 q 298 113 329 122 q 360 132 388 149 l 408 114 z"},"d":{"x_min":0,"x_max":531,"ha":531,"o":"m 539 838 l 539 -1 l -2 -1 l -2 838 z m 404 203 q 449 248 472 304 q 495 360 495 423 q 495 486 472 542 q 449 598 404 642 q 359 687 302 710 q 245 733 182 733 l 57 733 l 57 113 l 182 113 l 201 113 q 258 116 310 139 q 362 162 404 203 z"},"1":{"x_min":0,"x_max":316,"ha":316,"o":"m -9 840 l 327 840 l 327 0 l -9 0 z m 275 114 l 275 735 l 135 735 l 135 735 l 135 735 l 135 735 l 135 735 l 13 607 l 112 508 l 135 531 l 135 114 z"},"5":{"x_min":0,"x_max":444,"ha":444,"o":"m 456 840 l 456 0 l -12 0 l -12 840 z m 224 115 q 263 115 298 130 q 333 145 359 171 q 385 197 400 232 q 415 267 415 307 l 415 355 l 415 357 l 415 380 q 415 410 402 440 q 389 470 364 494 q 340 517 304 532 q 269 546 224 546 q 196 546 172 539 l 172 593 l 404 593 l 404 733 l 32 733 l 32 593 l 32 355 l 172 355 q 172 376 187 391 q 202 406 224 406 q 250 406 264 390 q 279 374 279 354 l 279 307 q 279 286 262 270 q 245 255 224 255 q 202 255 187 270 q 172 285 172 307 l 32 307 q 32 267 47 232 q 62 197 88 171 q 114 145 149 130 q 184 115 224 115 z"}}}
